<svg xmlns="http://www.w3.org/2000/svg" xmlns:xlink="http://www.w3.org/1999/xlink" viewBox="0 0 104 88" class="p-peito s-triceps s-ombro"><style>:root{--mbody:#CDD4DA;--mline:#A7B1B9;--mprim:#1F5673;--msec:#8FB4C9}
@media (prefers-color-scheme:dark){:root{--mbody:#343C43;--mline:#4C575F;--mprim:#7FB2CE;--msec:#3E5F73}}
.p-trapezio{--m-trapezio:var(--mprim)} .s-trapezio{--m-trapezio:var(--msec)}
.p-ombro{--m-ombro:var(--mprim)} .s-ombro{--m-ombro:var(--msec)}
.p-ombrop{--m-ombrop:var(--mprim)} .s-ombrop{--m-ombrop:var(--msec)}
.p-peito{--m-peito:var(--mprim)} .s-peito{--m-peito:var(--msec)}
.p-biceps{--m-biceps:var(--mprim)} .s-biceps{--m-biceps:var(--msec)}
.p-triceps{--m-triceps:var(--mprim)} .s-triceps{--m-triceps:var(--msec)}
.p-antebraco{--m-antebraco:var(--mprim)} .s-antebraco{--m-antebraco:var(--msec)}
.p-dorsal{--m-dorsal:var(--mprim)} .s-dorsal{--m-dorsal:var(--msec)}
.p-abdomen{--m-abdomen:var(--mprim)} .s-abdomen{--m-abdomen:var(--msec)}
.p-obliquo{--m-obliquo:var(--mprim)} .s-obliquo{--m-obliquo:var(--msec)}
.p-lombar{--m-lombar:var(--mprim)} .s-lombar{--m-lombar:var(--msec)}
.p-gluteo{--m-gluteo:var(--mprim)} .s-gluteo{--m-gluteo:var(--msec)}
.p-quadriceps{--m-quadriceps:var(--mprim)} .s-quadriceps{--m-quadriceps:var(--msec)}
.p-posterior{--m-posterior:var(--mprim)} .s-posterior{--m-posterior:var(--msec)}
.p-adutor{--m-adutor:var(--mprim)} .s-adutor{--m-adutor:var(--msec)}
.p-panturrilha{--m-panturrilha:var(--mprim)} .s-panturrilha{--m-panturrilha:var(--msec)}</style><defs><symbol id="bf" viewBox="0 0 50 88">
  <g stroke="var(--mline)" stroke-width="0.7" stroke-linejoin="round">
    <circle cx="25" cy="8" r="5.4" fill="var(--mbody)"/>
    <rect x="22.6" y="12.4" width="4.8" height="3.6" rx="1.5" fill="var(--mbody)"/>
    <path d="M17.5,18 L25,14.4 L32.5,18 L31,20 L19,20 Z" fill="var(--m-trapezio, var(--mbody))"/>
    <ellipse cx="13.8" cy="21.5" rx="4.3" ry="4.4" fill="var(--m-ombro, var(--mbody))"/>
    <ellipse cx="36.2" cy="21.5" rx="4.3" ry="4.4" fill="var(--m-ombro, var(--mbody))"/>
    <rect x="17.4" y="17.8" width="7.0" height="9.6" rx="3" fill="var(--m-peito, var(--mbody))"/>
    <rect x="25.6" y="17.8" width="7.0" height="9.6" rx="3" fill="var(--m-peito, var(--mbody))"/>
    <ellipse cx="12.4" cy="30.5" rx="3.5" ry="6.4" fill="var(--m-biceps, var(--mbody))"/>
    <ellipse cx="37.6" cy="30.5" rx="3.5" ry="6.4" fill="var(--m-biceps, var(--mbody))"/>
    <ellipse cx="10.9" cy="42" rx="3.1" ry="6.6" fill="var(--m-antebraco, var(--mbody))"/>
    <ellipse cx="39.1" cy="42" rx="3.1" ry="6.6" fill="var(--m-antebraco, var(--mbody))"/>
    <circle cx="10.1" cy="50.6" r="2.3" fill="var(--mbody)"/>
    <circle cx="39.9" cy="50.6" r="2.3" fill="var(--mbody)"/>
    <rect x="17.6" y="29.4" width="2.9" height="13" rx="1.4" fill="var(--m-obliquo, var(--mbody))"/>
    <rect x="29.5" y="29.4" width="2.9" height="13" rx="1.4" fill="var(--m-obliquo, var(--mbody))"/>
    <rect x="20.8" y="28.2" width="8.4" height="15.6" rx="2.4" fill="var(--m-abdomen, var(--mbody))"/>
    <rect x="19.4" y="44.2" width="11.2" height="5.4" rx="2.2" fill="var(--mbody)"/>
    <ellipse cx="21.4" cy="57.5" rx="4.3" ry="8.6" fill="var(--m-quadriceps, var(--mbody))"/>
    <ellipse cx="28.6" cy="57.5" rx="4.3" ry="8.6" fill="var(--m-quadriceps, var(--mbody))"/>
    <ellipse cx="25" cy="55.5" rx="2.2" ry="6.2" fill="var(--m-adutor, var(--mbody))"/>
    <circle cx="21.4" cy="68.2" r="2.7" fill="var(--mbody)"/>
    <circle cx="28.6" cy="68.2" r="2.7" fill="var(--mbody)"/>
    <ellipse cx="21.4" cy="76" rx="3.0" ry="6.4" fill="var(--m-panturrilha, var(--mbody))"/>
    <ellipse cx="28.6" cy="76" rx="3.0" ry="6.4" fill="var(--m-panturrilha, var(--mbody))"/>
    <rect x="18.8" y="82.2" width="5.2" height="2.8" rx="1.3" fill="var(--mbody)"/>
    <rect x="26" y="82.2" width="5.2" height="2.8" rx="1.3" fill="var(--mbody)"/>
  </g>
</symbol><symbol id="bb" viewBox="0 0 50 88">
  <g stroke="var(--mline)" stroke-width="0.7" stroke-linejoin="round">
    <circle cx="25" cy="8" r="5.4" fill="var(--mbody)"/>
    <rect x="22.6" y="12.4" width="4.8" height="3.6" rx="1.5" fill="var(--mbody)"/>
    <ellipse cx="13.8" cy="21.5" rx="4.3" ry="4.4" fill="var(--m-ombrop, var(--mbody))"/>
    <ellipse cx="36.2" cy="21.5" rx="4.3" ry="4.4" fill="var(--m-ombrop, var(--mbody))"/>
    <path d="M25,13.6 L33.6,18.6 L29.2,31 L20.8,31 L16.4,18.6 Z" fill="var(--m-trapezio, var(--mbody))"/>
    <path d="M18.8,23.2 C15.4,26.4 15.2,33.4 18,39.2 L23.4,33.8 L23.4,24.6 Z" fill="var(--m-dorsal, var(--mbody))"/>
    <path d="M31.2,23.2 C34.6,26.4 34.8,33.4 32,39.2 L26.6,33.8 L26.6,24.6 Z" fill="var(--m-dorsal, var(--mbody))"/>
    <ellipse cx="12.4" cy="30.5" rx="3.5" ry="6.4" fill="var(--m-triceps, var(--mbody))"/>
    <ellipse cx="37.6" cy="30.5" rx="3.5" ry="6.4" fill="var(--m-triceps, var(--mbody))"/>
    <ellipse cx="10.9" cy="42" rx="3.1" ry="6.6" fill="var(--m-antebraco, var(--mbody))"/>
    <ellipse cx="39.1" cy="42" rx="3.1" ry="6.6" fill="var(--m-antebraco, var(--mbody))"/>
    <circle cx="10.1" cy="50.6" r="2.3" fill="var(--mbody)"/>
    <circle cx="39.9" cy="50.6" r="2.3" fill="var(--mbody)"/>
    <rect x="20.6" y="35.6" width="8.8" height="8.4" rx="2.4" fill="var(--m-lombar, var(--mbody))"/>
    <ellipse cx="21.4" cy="48.6" rx="4.7" ry="4.8" fill="var(--m-gluteo, var(--mbody))"/>
    <ellipse cx="28.6" cy="48.6" rx="4.7" ry="4.8" fill="var(--m-gluteo, var(--mbody))"/>
    <ellipse cx="21.4" cy="59.5" rx="4.3" ry="8.2" fill="var(--m-posterior, var(--mbody))"/>
    <ellipse cx="28.6" cy="59.5" rx="4.3" ry="8.2" fill="var(--m-posterior, var(--mbody))"/>
    <circle cx="21.4" cy="68.4" r="2.7" fill="var(--mbody)"/>
    <circle cx="28.6" cy="68.4" r="2.7" fill="var(--mbody)"/>
    <ellipse cx="21.4" cy="76" rx="3.2" ry="6.6" fill="var(--m-panturrilha, var(--mbody))"/>
    <ellipse cx="28.6" cy="76" rx="3.2" ry="6.6" fill="var(--m-panturrilha, var(--mbody))"/>
    <rect x="18.8" y="82.2" width="5.2" height="2.8" rx="1.3" fill="var(--mbody)"/>
    <rect x="26" y="82.2" width="5.2" height="2.8" rx="1.3" fill="var(--mbody)"/>
  </g>
</symbol></defs><use href="#bf" x="0" y="0" width="50" height="88"/><use href="#bb" x="54" y="0" width="50" height="88"/></svg>